<?xml version="1.0" encoding="utf-8"?>
<!-- Generator: Adobe Illustrator 25.0.0, SVG Export Plug-In . SVG Version: 6.00 Build 0)  -->
<svg version="1.1" id="Graphic_Elements" xmlns="http://www.w3.org/2000/svg" xmlns:xlink="http://www.w3.org/1999/xlink" x="0px"
	 y="0px" viewBox="0 0 105 94.3" style="enable-background:new 0 0 105 94.3;" xml:space="preserve">
<style type="text/css">
	.st0{fill:#FFF89A;}
</style>
<g>
	<path class="st0" d="M59.3,29.1c1.7-1.7,2.8-4.1,2.8-6.8c0-5.3-4.3-9.6-9.6-9.6c-3.4,0-6.3,1.7-8,4.3C44,17.4,5.7,64.7,5.3,65.2
		c-1.7,1.7-2.8,4.1-2.8,6.8c0,5.3,4.3,9.6,9.6,9.6c3.4,0,6.3-1.7,8-4.3C20.6,76.8,59,29.6,59.3,29.1z"/>
	<path class="st0" d="M81.5,51.5c1.7-1.7,2.8-4.1,2.8-6.8c0-5.3-4.3-9.6-9.6-9.6c-3.4,0-6.3,1.7-8,4.3c-0.5,0.5-20.6,25.3-21,25.8
		c-1.7,1.7-2.8,4.1-2.8,6.8c0,5.3,4.3,9.6,9.6,9.6c3.4,0,6.3-1.7,8-4.3C61,76.8,81.1,52,81.5,51.5z"/>
	<g>
		<ellipse transform="matrix(0.2282 -0.9736 0.9736 0.2282 50.0094 107.5951)" class="st0" cx="92.9" cy="22.3" rx="9.6" ry="9.6"/>
	</g>
	<g>
		<ellipse transform="matrix(0.9294 -0.3691 0.3691 0.9294 -7.3581 6.049)" class="st0" cx="12.1" cy="22.3" rx="9.6" ry="9.6"/>
	</g>
</g>
<text transform="matrix(1 0 0 1 -241.1006 -74.987)" style="font-family:'Organocoloredversionat:logomagazin.comorgano-font'; font-size:12px;">Lorem ipsum</text>
</svg>
