<?xml version="1.0" encoding="utf-8"?>
<!-- Generator: Adobe Illustrator 25.0.0, SVG Export Plug-In . SVG Version: 6.00 Build 0)  -->
<svg version="1.1" xmlns="http://www.w3.org/2000/svg" xmlns:xlink="http://www.w3.org/1999/xlink" x="0px" y="0px"
	 viewBox="0 0 100 74" style="enable-background:new 0 0 100 74;" xml:space="preserve">
<style type="text/css">
	.st0{fill:#FF8AAE;}
</style>
<g id="Background">
</g>
<g id="Graphic_Elements">
	<g>
		<path class="st0" d="M56.8,18.6c1.7-1.7,2.8-4.1,2.8-6.8c0-5.3-4.3-9.6-9.6-9.6c-3.4,0-6.3,1.7-8,4.3C41.5,7,3.2,54.2,2.8,54.8
			C1.1,56.5,0,58.9,0,61.6c0,5.3,4.3,9.6,9.6,9.6c3.4,0,6.3-1.7,8-4.3C18.1,66.4,56.5,19.2,56.8,18.6z"/>
		<path class="st0" d="M79,41c1.7-1.7,2.8-4.1,2.8-6.8c0-5.3-4.3-9.6-9.6-9.6c-3.4,0-6.3,1.7-8,4.3c-0.5,0.5-20.6,25.3-21,25.8
			c-1.7,1.7-2.8,4.1-2.8,6.8c0,5.3,4.3,9.6,9.6,9.6c3.4,0,6.3-1.7,8-4.3C58.5,66.4,78.6,41.6,79,41z"/>
		<g>
			<ellipse transform="matrix(0.2282 -0.9736 0.9736 0.2282 58.2295 97.1155)" class="st0" cx="90.4" cy="11.8" rx="9.6" ry="9.6"/>
		</g>
		<g>
			<ellipse transform="matrix(0.9294 -0.3691 0.3691 0.9294 -3.6865 4.3899)" class="st0" cx="9.6" cy="11.8" rx="9.6" ry="9.6"/>
		</g>
	</g>
</g>
<g id="Text">
</g>
</svg>
